<svg xmlns="http://www.w3.org/2000/svg" width="32" height="32" viewBox="0 0 32 32" fill="none">
  <rect width="32" height="32" rx="8" fill="url(#gradient)"/>
  <path d="M8 12c0-1.1.9-2 2-2h12c1.1 0 2 .9 2 2v8c0 1.1-.9 2-2 2H10c-1.1 0-2-.9-2-2v-8z" fill="white" opacity="0.9"/>
  <path d="M12 8c0-.6.4-1 1-1h6c.6 0 1 .4 1 1v2H12V8z" fill="white" opacity="0.7"/>
  <circle cx="16" cy="16" r="3" fill="#FF7A00"/>
  <circle cx="16" cy="16" r="1.5" fill="white"/>
  <path d="M20 14l2-2M20 18l2 2M12 14l-2-2M12 18l-2 2" stroke="white" stroke-width="1.5" stroke-linecap="round" opacity="0.6"/>
  <defs>
    <linearGradient id="gradient" x1="0%" y1="0%" x2="100%" y2="100%">
      <stop offset="0%" stop-color="#FF7A00"/>
      <stop offset="100%" stop-color="#FF9E40"/>
    </linearGradient>
  </defs>
</svg>
